# xmcd
#
# Track frame offsets:
#	150
#	43756
#	87967
#	128828
#	174927
#	224682
#
# Disc length: 3669 seconds
#
# Revision: 1
# Processed by: cddbd v1.5.2PL0 Copyright (c) Steve Scherf et al.
# Submitted via: audiograbber 1.83.01
#
DISCID=500e5306
DTITLE=Rev Peter Leonce - It's Going To Rain
DYEAR=2009
DGENRE=Gospel
TTITLE0=God Desires To Bless Us
TTITLE1=God's Srategies For Blessing
TTITLE2=Positioning Yourself For God's Blessing
TTITLE3=Privileges Of Right Relationship With God
TTITLE4=Why God's Blessing Stops
TTITLE5=Praying For The Rain Of God
EXTD=Agape Bible Ministries\nRiverside Road\nCurepe\nTrinidad and Tobago\n1-868-6
EXTD=63-5075\nwww.agapebm.com\nPastors Samuel and Grace Philip
EXTT0=
EXTT1=
EXTT2=
EXTT3=
EXTT4=
EXTT5=
PLAYORDER=
